<?xml version="1.0" encoding="UTF-8" standalone="no"?>
<!-- Created with Inkscape (http://www.inkscape.org/) -->

<svg
   xmlns:dc="http://purl.org/dc/elements/1.1/"
   xmlns:cc="http://creativecommons.org/ns#"
   xmlns:rdf="http://www.w3.org/1999/02/22-rdf-syntax-ns#"
   xmlns:svg="http://www.w3.org/2000/svg"
   xmlns="http://www.w3.org/2000/svg"
   xmlns:sodipodi="http://sodipodi.sourceforge.net/DTD/sodipodi-0.dtd"
   xmlns:inkscape="http://www.inkscape.org/namespaces/inkscape"
   id="svg2"
   version="1.1"
   inkscape:version="0.48.4 r9939"
   width="320"
   height="60"
   xml:space="preserve"
   sodipodi:docname="funkfeuer-logo.svg"
   inkscape:export-filename="/home/datacop/src/funkfeuer.at/themes/funkfeuer.at-theme/assets/images/funkfeuer-logo.png"
   inkscape:export-xdpi="59.923637"
   inkscape:export-ydpi="59.923637"><metadata
     id="metadata8"><rdf:RDF><cc:Work
         rdf:about=""><dc:format>image/svg+xml</dc:format><dc:type
           rdf:resource="http://purl.org/dc/dcmitype/StillImage" /><dc:title></dc:title></cc:Work></rdf:RDF></metadata><defs
     id="defs6" /><sodipodi:namedview
     pagecolor="#ffffff"
     bordercolor="#666666"
     borderopacity="1"
     objecttolerance="10"
     gridtolerance="10"
     guidetolerance="10"
     inkscape:pageopacity="0"
     inkscape:pageshadow="2"
     inkscape:window-width="1440"
     inkscape:window-height="857"
     id="namedview4"
     showgrid="true"
     inkscape:zoom="1.7919699"
     inkscape:cx="128.89507"
     inkscape:cy="83.613189"
     inkscape:window-x="-2"
     inkscape:window-y="19"
     inkscape:window-maximized="1"
     inkscape:current-layer="g10"
     showguides="false"
     inkscape:snap-global="false"
     fit-margin-top="10"
     fit-margin-left="5"
     fit-margin-right="5"
     fit-margin-bottom="10"><inkscape:grid
       type="xygrid"
       id="grid3061"
       empspacing="5"
       visible="true"
       enabled="true"
       snapvisiblegridlinesonly="true"
       originx="-414.99999px"
       originy="-89.999974px" /></sodipodi:namedview><g
     id="g10"
     inkscape:groupmode="layer"
     inkscape:label="ink_ext_XXXXXX"
     transform="matrix(1.25,0,0,-1.25,-414.99999,149.99997)"><g
       id="g3753"
       transform="matrix(1.2561478,0,0,1.2561499,135.45516,-518.96935)"
       style="fill:#6991aa;fill-opacity:1"
       inkscape:export-xdpi="90"
       inkscape:export-ydpi="90"
       inkscape:export-filename="/home/datacop/src/funkfeuer.at/themes/funkfeuer.at-theme/assets/images/funkfeuer-logo.png"><path
         d="m 340.965,479.099 c 0.564,-0.004 1.061,-0.118 1.482,-0.325 0.419,-0.212 0.781,-0.483 1.088,-0.809 0.303,-0.329 0.569,-0.672 0.79,-1.034 l 2.25,-3.523 c 0.149,-0.235 0.339,-0.447 0.569,-0.637 0.231,-0.185 0.474,-0.334 0.732,-0.442 0.257,-0.109 0.501,-0.163 0.731,-0.168 l 3.171,0 c 0.235,0.005 0.412,0.059 0.529,0.168 0.118,0.108 0.172,0.257 0.163,0.442 -0.009,0.19 -0.087,0.402 -0.231,0.637 l -2.412,3.821 c -0.356,0.569 -0.696,1.057 -1.016,1.464 -0.316,0.406 -0.638,0.741 -0.958,1.002 -0.32,0.262 -0.668,0.461 -1.035,0.596 0.692,0.136 1.333,0.326 1.934,0.57 0.601,0.248 1.129,0.564 1.586,0.948 0.455,0.389 0.817,0.854 1.074,1.401 0.258,0.546 0.388,1.187 0.393,1.92 -0.005,0.939 -0.18,1.783 -0.524,2.524 -0.343,0.745 -0.826,1.378 -1.445,1.897 -0.623,0.524 -1.355,0.922 -2.191,1.192 -0.84,0.276 -1.757,0.416 -2.75,0.416 l -10.922,0 c -0.225,0 -0.434,-0.059 -0.618,-0.168 -0.181,-0.108 -0.325,-0.257 -0.434,-0.442 -0.109,-0.185 -0.162,-0.397 -0.167,-0.637 l 0,-16.504 c 0.005,-0.231 0.058,-0.438 0.171,-0.623 0.113,-0.19 0.263,-0.339 0.452,-0.452 0.185,-0.113 0.393,-0.167 0.623,-0.172 l 2.494,0 c 0.239,0.005 0.447,0.059 0.636,0.172 0.186,0.113 0.335,0.262 0.443,0.452 0.109,0.185 0.163,0.392 0.167,0.623 l 0,5.691 3.225,0 z m 2.412,8.32 c 0.384,0.005 0.777,-0.037 1.179,-0.112 0.398,-0.078 0.773,-0.204 1.111,-0.376 0.344,-0.176 0.619,-0.411 0.826,-0.709 0.213,-0.294 0.322,-0.66 0.325,-1.092 -0.003,-0.434 -0.112,-0.8 -0.325,-1.094 -0.207,-0.294 -0.482,-0.529 -0.826,-0.705 -0.338,-0.176 -0.713,-0.302 -1.111,-0.379 -0.402,-0.077 -0.795,-0.113 -1.179,-0.113 l -5.637,0 0,4.58 5.637,0"
         style="fill:#6991aa;fill-opacity:1;fill-rule:nonzero;stroke:none"
         id="path378"
         inkscape:connector-curvature="0" /><path
         d="m 329.068,491.159 -15.258,0 c -0.23,0 -0.438,-0.059 -0.622,-0.168 -0.191,-0.103 -0.34,-0.252 -0.452,-0.433 -0.113,-0.185 -0.168,-0.389 -0.172,-0.619 l 0,-16.504 c 0.004,-0.239 0.059,-0.452 0.167,-0.641 0.108,-0.194 0.258,-0.343 0.443,-0.456 0.19,-0.118 0.402,-0.172 0.636,-0.177 l 15.204,0 c 0.24,0.005 0.447,0.059 0.637,0.172 0.185,0.113 0.335,0.262 0.443,0.452 0.108,0.185 0.162,0.392 0.167,0.623 l 0,1.274 c -0.005,0.23 -0.059,0.433 -0.167,0.618 -0.108,0.181 -0.253,0.325 -0.434,0.434 -0.185,0.108 -0.389,0.163 -0.619,0.168 l -11.49,0 0,3.902 9.918,0 c 0.23,0.004 0.438,0.059 0.624,0.171 0.189,0.113 0.338,0.262 0.451,0.452 0.113,0.185 0.167,0.393 0.172,0.623 l 0,1.247 c -0.005,0.231 -0.059,0.438 -0.172,0.623 -0.113,0.189 -0.262,0.339 -0.451,0.451 -0.186,0.114 -0.394,0.168 -0.624,0.172 l -9.918,0 0,3.876 11.517,0 c 0.231,0.005 0.439,0.058 0.623,0.167 0.19,0.109 0.339,0.257 0.452,0.443 0.113,0.189 0.167,0.402 0.172,0.636 l 0,1.247 c -0.005,0.24 -0.059,0.452 -0.172,0.637 -0.113,0.185 -0.262,0.334 -0.452,0.442 -0.184,0.109 -0.392,0.168 -0.623,0.168"
         style="fill:#6991aa;fill-opacity:1;fill-rule:nonzero;stroke:none"
         id="path380"
         inkscape:connector-curvature="0" /><path
         d="m 298.445,475.793 c -1.202,-0.005 -2.087,0.316 -2.651,0.949 -0.57,0.637 -0.85,1.603 -0.845,2.903 l 0,10.267 c -0.005,0.235 -0.059,0.448 -0.172,0.637 -0.113,0.185 -0.262,0.334 -0.452,0.442 -0.185,0.109 -0.392,0.168 -0.623,0.168 l -2.466,0 c -0.239,0 -0.451,-0.059 -0.641,-0.168 -0.195,-0.108 -0.344,-0.257 -0.457,-0.442 -0.117,-0.189 -0.171,-0.402 -0.176,-0.637 l 0,-10.235 c 0,-1.608 0.312,-2.981 0.935,-4.114 0.623,-1.134 1.554,-2.002 2.791,-2.602 1.239,-0.601 2.778,-0.903 4.621,-0.908 l 2.385,0 c 1.843,0.005 3.383,0.307 4.621,0.908 1.237,0.6 2.167,1.468 2.791,2.602 0.623,1.133 0.935,2.506 0.935,4.114 l 0,10.235 c -0.005,0.235 -0.059,0.448 -0.172,0.637 -0.113,0.185 -0.267,0.334 -0.455,0.442 -0.195,0.109 -0.408,0.168 -0.647,0.168 l -2.466,0 c -0.225,0 -0.438,-0.059 -0.623,-0.168 -0.19,-0.108 -0.339,-0.257 -0.452,-0.442 -0.108,-0.189 -0.167,-0.402 -0.172,-0.637 l 0,-10.267 c 0.005,-1.3 -0.275,-2.266 -0.844,-2.903 -0.565,-0.633 -1.45,-0.954 -2.652,-0.949 l -2.113,0"
         style="fill:#6991aa;fill-opacity:1;fill-rule:nonzero;stroke:none"
         id="path382"
         inkscape:connector-curvature="0" /><path
         d="m 286.548,491.159 -15.258,0 c -0.229,0 -0.438,-0.059 -0.623,-0.168 -0.19,-0.103 -0.339,-0.252 -0.453,-0.433 -0.112,-0.185 -0.166,-0.389 -0.171,-0.619 l 0,-16.504 c 0.005,-0.239 0.059,-0.452 0.167,-0.641 0.109,-0.194 0.258,-0.343 0.443,-0.456 0.19,-0.118 0.402,-0.172 0.637,-0.177 l 15.204,0 c 0.239,0.005 0.446,0.059 0.636,0.172 0.186,0.113 0.335,0.262 0.443,0.452 0.109,0.185 0.162,0.392 0.167,0.623 l 0,1.274 c -0.005,0.23 -0.058,0.433 -0.167,0.618 -0.108,0.181 -0.253,0.325 -0.433,0.434 -0.186,0.108 -0.389,0.163 -0.619,0.168 l -11.491,0 0,3.902 9.919,0 c 0.23,0.004 0.439,0.059 0.623,0.171 0.19,0.113 0.339,0.262 0.451,0.452 0.114,0.185 0.168,0.393 0.172,0.623 l 0,1.247 c -0.004,0.231 -0.058,0.438 -0.172,0.623 -0.112,0.189 -0.261,0.339 -0.451,0.451 -0.184,0.114 -0.393,0.168 -0.623,0.172 l -9.919,0 0,3.876 11.518,0 c 0.23,0.005 0.438,0.058 0.623,0.167 0.19,0.109 0.339,0.257 0.452,0.443 0.112,0.189 0.166,0.402 0.171,0.636 l 0,1.247 c -0.005,0.24 -0.059,0.452 -0.171,0.637 -0.113,0.185 -0.262,0.334 -0.452,0.442 -0.185,0.109 -0.393,0.168 -0.623,0.168"
         style="fill:#6991aa;fill-opacity:1;fill-rule:nonzero;stroke:none"
         id="path384"
         inkscape:connector-curvature="0" /><path
         d="m 253.864,472.161 c 0.24,0.005 0.448,0.059 0.637,0.177 0.186,0.113 0.334,0.262 0.442,0.456 0.109,0.189 0.164,0.402 0.168,0.641 l 0,5.556 9.377,0 c 0.23,0.005 0.438,0.059 0.624,0.171 0.189,0.113 0.338,0.262 0.451,0.452 0.112,0.185 0.167,0.393 0.172,0.623 l 0,1.247 c -0.005,0.23 -0.06,0.438 -0.172,0.623 -0.113,0.19 -0.262,0.339 -0.451,0.452 -0.186,0.112 -0.394,0.167 -0.624,0.171 l -9.377,0 0,4.689 11.518,0 c 0.23,0.005 0.438,0.058 0.623,0.167 0.19,0.109 0.339,0.257 0.452,0.443 0.113,0.189 0.166,0.402 0.171,0.636 l 0,1.247 c -0.005,0.24 -0.058,0.452 -0.171,0.637 -0.113,0.185 -0.262,0.334 -0.452,0.442 -0.185,0.109 -0.393,0.168 -0.623,0.168 l -15.258,0 c -0.23,0 -0.438,-0.059 -0.623,-0.168 -0.19,-0.103 -0.339,-0.252 -0.452,-0.433 -0.113,-0.185 -0.167,-0.389 -0.171,-0.619 l 0,-16.504 c 0.004,-0.239 0.058,-0.452 0.167,-0.641 0.108,-0.194 0.257,-0.343 0.443,-0.456 0.189,-0.118 0.401,-0.172 0.636,-0.177 l 2.493,0"
         style="fill:#6991aa;fill-opacity:1;fill-rule:nonzero;stroke:none"
         id="path386"
         inkscape:connector-curvature="0" /><path
         d="m 232.32,472.161 c 0.231,0.005 0.438,0.059 0.623,0.168 0.19,0.108 0.339,0.253 0.452,0.433 0.113,0.185 0.167,0.393 0.172,0.618 l 0,6.424 2.844,0 c 0.566,-0.005 1.067,-0.118 1.5,-0.348 0.435,-0.226 0.827,-0.542 1.184,-0.949 0.357,-0.406 0.7,-0.876 1.03,-1.413 l 2.33,-3.686 c 0.149,-0.235 0.339,-0.447 0.569,-0.637 0.231,-0.185 0.475,-0.334 0.732,-0.442 0.257,-0.109 0.502,-0.163 0.732,-0.168 l 3.035,0 c 0.235,0.005 0.411,0.059 0.528,0.168 0.118,0.108 0.172,0.257 0.163,0.442 -0.009,0.19 -0.085,0.402 -0.23,0.637 l -3.306,5.257 c -0.19,0.299 -0.416,0.61 -0.674,0.935 -0.252,0.33 -0.532,0.646 -0.831,0.945 -0.298,0.302 -0.61,0.56 -0.934,0.777 -0.325,0.216 -0.651,0.36 -0.976,0.433 0.609,0.149 1.129,0.375 1.553,0.682 0.425,0.302 0.787,0.651 1.085,1.039 0.298,0.393 0.555,0.795 0.777,1.205 l 2.872,5.203 c 0.203,0.376 0.271,0.679 0.203,0.913 -0.067,0.235 -0.271,0.353 -0.609,0.362 l -3.063,0 c -0.343,0 -0.686,-0.104 -1.02,-0.311 -0.334,-0.209 -0.628,-0.53 -0.877,-0.964 l -2.059,-3.657 c -0.348,-0.633 -0.714,-1.143 -1.089,-1.54 -0.375,-0.394 -0.781,-0.683 -1.21,-0.867 -0.43,-0.186 -0.904,-0.277 -1.415,-0.277 l -2.844,0 0,6.341 c -0.005,0.24 -0.059,0.452 -0.172,0.647 -0.113,0.19 -0.262,0.343 -0.452,0.456 -0.185,0.113 -0.392,0.167 -0.623,0.172 l -2.493,0 c -0.231,-0.005 -0.439,-0.059 -0.623,-0.172 -0.19,-0.113 -0.339,-0.266 -0.452,-0.456 -0.113,-0.195 -0.167,-0.407 -0.172,-0.647 l 0,-16.449 c 0.005,-0.239 0.059,-0.452 0.172,-0.641 0.113,-0.194 0.262,-0.343 0.452,-0.456 0.184,-0.118 0.392,-0.172 0.623,-0.177 l 2.493,0"
         style="fill:#6991aa;fill-opacity:1;fill-rule:nonzero;stroke:none"
         id="path388"
         inkscape:connector-curvature="0" /><path
         d="m 208.661,472.161 c 0.231,0.005 0.439,0.059 0.624,0.172 0.189,0.113 0.338,0.262 0.451,0.452 0.113,0.189 0.168,0.397 0.172,0.623 l 0,11.373 7.317,-11.373 c 0.15,-0.226 0.325,-0.434 0.538,-0.623 0.207,-0.19 0.433,-0.339 0.673,-0.452 0.239,-0.113 0.478,-0.167 0.713,-0.172 l 4.39,0 c 0.24,0.005 0.452,0.059 0.637,0.172 0.185,0.113 0.335,0.262 0.443,0.452 0.109,0.189 0.167,0.397 0.167,0.623 l 0,16.504 c 0,0.235 -0.058,0.448 -0.167,0.637 -0.108,0.185 -0.258,0.334 -0.443,0.442 -0.185,0.109 -0.397,0.168 -0.637,0.168 l -2.276,0 c -0.226,0 -0.438,-0.059 -0.623,-0.168 -0.19,-0.108 -0.339,-0.252 -0.452,-0.433 -0.108,-0.185 -0.167,-0.393 -0.172,-0.619 l 0,-12.348 -7.995,12.321 c -0.139,0.212 -0.307,0.411 -0.505,0.601 -0.199,0.189 -0.416,0.343 -0.642,0.461 -0.225,0.122 -0.447,0.18 -0.667,0.185 l -3.903,0 c -0.231,-0.005 -0.434,-0.059 -0.619,-0.172 -0.181,-0.113 -0.326,-0.262 -0.434,-0.451 -0.108,-0.185 -0.162,-0.398 -0.167,-0.624 l 0,-16.504 c 0.005,-0.226 0.059,-0.434 0.171,-0.623 0.114,-0.19 0.263,-0.339 0.453,-0.452 0.184,-0.113 0.392,-0.167 0.623,-0.172 l 2.33,0"
         style="fill:#6991aa;fill-opacity:1;fill-rule:nonzero;stroke:none"
         id="path390"
         inkscape:connector-curvature="0" /><path
         d="m 190.965,475.793 c -1.202,-0.005 -2.087,0.316 -2.651,0.949 -0.57,0.637 -0.85,1.603 -0.845,2.903 l 0,10.267 c -0.005,0.235 -0.059,0.448 -0.171,0.637 -0.114,0.185 -0.263,0.334 -0.453,0.442 -0.185,0.109 -0.392,0.168 -0.623,0.168 l -2.466,0 c -0.239,0 -0.451,-0.059 -0.641,-0.168 -0.195,-0.108 -0.344,-0.257 -0.457,-0.442 -0.117,-0.189 -0.171,-0.402 -0.176,-0.637 l 0,-10.235 c 0,-1.608 0.312,-2.981 0.936,-4.114 0.623,-1.134 1.553,-2.002 2.791,-2.602 1.237,-0.601 2.777,-0.903 4.62,-0.908 l 2.385,0 c 1.843,0.005 3.383,0.307 4.62,0.908 1.238,0.6 2.169,1.468 2.792,2.602 0.623,1.133 0.935,2.506 0.935,4.114 l 0,10.235 c -0.005,0.235 -0.06,0.448 -0.172,0.637 -0.113,0.185 -0.267,0.334 -0.456,0.442 -0.194,0.109 -0.406,0.168 -0.646,0.168 l -2.466,0 c -0.226,0 -0.438,-0.059 -0.623,-0.168 -0.19,-0.108 -0.339,-0.257 -0.452,-0.442 -0.108,-0.189 -0.167,-0.402 -0.171,-0.637 l 0,-10.267 c 0.004,-1.3 -0.277,-2.266 -0.845,-2.903 -0.564,-0.633 -1.45,-0.954 -2.651,-0.949 l -2.114,0"
         style="fill:#6991aa;fill-opacity:1;fill-rule:nonzero;stroke:none"
         id="path392"
         inkscape:connector-curvature="0" /><path
         d="m 166.574,472.161 c 0.24,0.005 0.448,0.059 0.637,0.177 0.185,0.113 0.334,0.262 0.443,0.456 0.108,0.189 0.162,0.402 0.167,0.641 l 0,5.556 9.376,0 c 0.231,0.005 0.439,0.059 0.624,0.171 0.19,0.113 0.339,0.262 0.452,0.452 0.113,0.185 0.167,0.393 0.172,0.623 l 0,1.247 c -0.005,0.23 -0.059,0.438 -0.172,0.623 -0.113,0.19 -0.262,0.339 -0.452,0.452 -0.185,0.112 -0.393,0.167 -0.624,0.171 l -9.376,0 0,4.689 11.518,0 c 0.23,0.005 0.437,0.058 0.623,0.167 0.19,0.109 0.339,0.257 0.452,0.443 0.113,0.189 0.166,0.402 0.171,0.636 l 0,1.247 c -0.005,0.24 -0.058,0.452 -0.171,0.637 -0.113,0.185 -0.262,0.334 -0.452,0.442 -0.186,0.109 -0.393,0.168 -0.623,0.168 l -15.258,0 c -0.23,0 -0.438,-0.059 -0.623,-0.168 -0.19,-0.103 -0.339,-0.252 -0.452,-0.433 -0.113,-0.185 -0.167,-0.389 -0.171,-0.619 l 0,-16.504 c 0.004,-0.239 0.058,-0.452 0.166,-0.641 0.109,-0.194 0.258,-0.343 0.443,-0.456 0.19,-0.118 0.402,-0.172 0.637,-0.177 l 2.493,0"
         style="fill:#6991aa;fill-opacity:1;fill-rule:nonzero;stroke:none"
         id="path394"
         inkscape:connector-curvature="0" /></g></g></svg>